<mxfile host="app.diagrams.net" agent="Mozilla/5.0 (Windows NT 10.0; Win64; x64) AppleWebKit/537.36 (KHTML, like Gecko) Chrome/132.0.0.0 Safari/537.36 OPR/117.0.0.0" version="26.1.1" pages="2">
  <diagram name="1 oldal" id="xCbgDzOelTJVnbMKI5kr">
    <mxGraphModel dx="1177" dy="820" grid="1" gridSize="10" guides="1" tooltips="1" connect="1" arrows="1" fold="1" page="1" pageScale="1" pageWidth="827" pageHeight="1169" math="0" shadow="0">
      <root>
        <mxCell id="0" />
        <mxCell id="1" parent="0" />
        <mxCell id="4UYKsmeuFcFhBtTtbDJH-1" value="Oktató" style="swimlane;fontStyle=0;childLayout=stackLayout;horizontal=1;startSize=26;horizontalStack=0;resizeParent=1;resizeParentMax=0;resizeLast=0;collapsible=1;marginBottom=0;align=center;fontSize=14;" vertex="1" parent="1">
          <mxGeometry x="20" y="260" width="160" height="116" as="geometry" />
        </mxCell>
        <mxCell id="4UYKsmeuFcFhBtTtbDJH-2" value="&lt;u&gt;neptunkód_PK&amp;nbsp; C(10)&lt;/u&gt;" style="text;strokeColor=none;fillColor=none;spacingLeft=4;spacingRight=4;overflow=hidden;rotatable=0;points=[[0,0.5],[1,0.5]];portConstraint=eastwest;fontSize=12;whiteSpace=wrap;html=1;" vertex="1" parent="4UYKsmeuFcFhBtTtbDJH-1">
          <mxGeometry y="26" width="160" height="30" as="geometry" />
        </mxCell>
        <mxCell id="4UYKsmeuFcFhBtTtbDJH-3" value="név C(30)" style="text;strokeColor=none;fillColor=none;spacingLeft=4;spacingRight=4;overflow=hidden;rotatable=0;points=[[0,0.5],[1,0.5]];portConstraint=eastwest;fontSize=12;whiteSpace=wrap;html=1;" vertex="1" parent="4UYKsmeuFcFhBtTtbDJH-1">
          <mxGeometry y="56" width="160" height="30" as="geometry" />
        </mxCell>
        <mxCell id="4UYKsmeuFcFhBtTtbDJH-4" value="Tanszék C(20)" style="text;strokeColor=none;fillColor=none;spacingLeft=4;spacingRight=4;overflow=hidden;rotatable=0;points=[[0,0.5],[1,0.5]];portConstraint=eastwest;fontSize=12;whiteSpace=wrap;html=1;" vertex="1" parent="4UYKsmeuFcFhBtTtbDJH-1">
          <mxGeometry y="86" width="160" height="30" as="geometry" />
        </mxCell>
        <mxCell id="4UYKsmeuFcFhBtTtbDJH-5" value="Tárgy" style="swimlane;fontStyle=0;childLayout=stackLayout;horizontal=1;startSize=26;horizontalStack=0;resizeParent=1;resizeParentMax=0;resizeLast=0;collapsible=1;marginBottom=0;align=center;fontSize=14;" vertex="1" parent="1">
          <mxGeometry x="230" y="160" width="160" height="150" as="geometry" />
        </mxCell>
        <mxCell id="4UYKsmeuFcFhBtTtbDJH-6" value="&lt;u&gt;Kód_PK&amp;nbsp; &amp;nbsp;N(10)&lt;/u&gt;" style="text;strokeColor=none;fillColor=none;spacingLeft=4;spacingRight=4;overflow=hidden;rotatable=0;points=[[0,0.5],[1,0.5]];portConstraint=eastwest;fontSize=12;whiteSpace=wrap;html=1;" vertex="1" parent="4UYKsmeuFcFhBtTtbDJH-5">
          <mxGeometry y="26" width="160" height="30" as="geometry" />
        </mxCell>
        <mxCell id="4UYKsmeuFcFhBtTtbDJH-7" value="megnevezés&amp;nbsp; &amp;nbsp; C(30)" style="text;strokeColor=none;fillColor=none;spacingLeft=4;spacingRight=4;overflow=hidden;rotatable=0;points=[[0,0.5],[1,0.5]];portConstraint=eastwest;fontSize=12;whiteSpace=wrap;html=1;" vertex="1" parent="4UYKsmeuFcFhBtTtbDJH-5">
          <mxGeometry y="56" width="160" height="30" as="geometry" />
        </mxCell>
        <mxCell id="4UYKsmeuFcFhBtTtbDJH-8" value="kredit&amp;nbsp; &amp;nbsp;C(2)" style="text;strokeColor=none;fillColor=none;spacingLeft=4;spacingRight=4;overflow=hidden;rotatable=0;points=[[0,0.5],[1,0.5]];portConstraint=eastwest;fontSize=12;whiteSpace=wrap;html=1;" vertex="1" parent="4UYKsmeuFcFhBtTtbDJH-5">
          <mxGeometry y="86" width="160" height="34" as="geometry" />
        </mxCell>
        <mxCell id="4UYKsmeuFcFhBtTtbDJH-9" value="&lt;u&gt;oktató_FK&amp;nbsp; &amp;nbsp;C(10)&lt;/u&gt;" style="text;strokeColor=none;fillColor=none;spacingLeft=4;spacingRight=4;overflow=hidden;rotatable=0;points=[[0,0.5],[1,0.5]];portConstraint=eastwest;fontSize=12;whiteSpace=wrap;html=1;" vertex="1" parent="4UYKsmeuFcFhBtTtbDJH-5">
          <mxGeometry y="120" width="160" height="30" as="geometry" />
        </mxCell>
        <mxCell id="4UYKsmeuFcFhBtTtbDJH-10" value="Hallgat" style="swimlane;fontStyle=0;childLayout=stackLayout;horizontal=1;startSize=26;horizontalStack=0;resizeParent=1;resizeParentMax=0;resizeLast=0;collapsible=1;marginBottom=0;align=center;fontSize=14;" vertex="1" parent="1">
          <mxGeometry x="440" y="130" width="160" height="146" as="geometry" />
        </mxCell>
        <mxCell id="4UYKsmeuFcFhBtTtbDJH-11" value="&lt;u&gt;hallgató_FK&amp;nbsp; &amp;nbsp;C(10)&lt;/u&gt;" style="text;strokeColor=none;fillColor=none;spacingLeft=4;spacingRight=4;overflow=hidden;rotatable=0;points=[[0,0.5],[1,0.5]];portConstraint=eastwest;fontSize=12;whiteSpace=wrap;html=1;" vertex="1" parent="4UYKsmeuFcFhBtTtbDJH-10">
          <mxGeometry y="26" width="160" height="30" as="geometry" />
        </mxCell>
        <mxCell id="4UYKsmeuFcFhBtTtbDJH-12" value="&lt;u&gt;tárgy_FK&amp;nbsp; &amp;nbsp;N(20)&lt;/u&gt;" style="text;strokeColor=none;fillColor=none;spacingLeft=4;spacingRight=4;overflow=hidden;rotatable=0;points=[[0,0.5],[1,0.5]];portConstraint=eastwest;fontSize=12;whiteSpace=wrap;html=1;" vertex="1" parent="4UYKsmeuFcFhBtTtbDJH-10">
          <mxGeometry y="56" width="160" height="30" as="geometry" />
        </mxCell>
        <mxCell id="4UYKsmeuFcFhBtTtbDJH-15" value="félév&amp;nbsp; C(10)" style="text;strokeColor=none;fillColor=none;spacingLeft=4;spacingRight=4;overflow=hidden;rotatable=0;points=[[0,0.5],[1,0.5]];portConstraint=eastwest;fontSize=12;whiteSpace=wrap;html=1;" vertex="1" parent="4UYKsmeuFcFhBtTtbDJH-10">
          <mxGeometry y="86" width="160" height="30" as="geometry" />
        </mxCell>
        <mxCell id="4UYKsmeuFcFhBtTtbDJH-13" value="vizsgajegy&amp;nbsp; C(1)" style="text;strokeColor=none;fillColor=none;spacingLeft=4;spacingRight=4;overflow=hidden;rotatable=0;points=[[0,0.5],[1,0.5]];portConstraint=eastwest;fontSize=12;whiteSpace=wrap;html=1;" vertex="1" parent="4UYKsmeuFcFhBtTtbDJH-10">
          <mxGeometry y="116" width="160" height="30" as="geometry" />
        </mxCell>
        <mxCell id="4UYKsmeuFcFhBtTtbDJH-16" value="Hallgató" style="swimlane;fontStyle=0;childLayout=stackLayout;horizontal=1;startSize=26;horizontalStack=0;resizeParent=1;resizeParentMax=0;resizeLast=0;collapsible=1;marginBottom=0;align=center;fontSize=14;" vertex="1" parent="1">
          <mxGeometry x="660" y="130" width="160" height="266" as="geometry" />
        </mxCell>
        <mxCell id="4UYKsmeuFcFhBtTtbDJH-17" value="&lt;u&gt;neptunkód_PK&amp;nbsp; &amp;nbsp;C(10)&lt;/u&gt;" style="text;strokeColor=none;fillColor=none;spacingLeft=4;spacingRight=4;overflow=hidden;rotatable=0;points=[[0,0.5],[1,0.5]];portConstraint=eastwest;fontSize=12;whiteSpace=wrap;html=1;" vertex="1" parent="4UYKsmeuFcFhBtTtbDJH-16">
          <mxGeometry y="26" width="160" height="30" as="geometry" />
        </mxCell>
        <mxCell id="4UYKsmeuFcFhBtTtbDJH-18" value="&amp;nbsp;név&amp;nbsp; C(30)" style="text;strokeColor=none;fillColor=none;spacingLeft=4;spacingRight=4;overflow=hidden;rotatable=0;points=[[0,0.5],[1,0.5]];portConstraint=eastwest;fontSize=12;whiteSpace=wrap;html=1;" vertex="1" parent="4UYKsmeuFcFhBtTtbDJH-16">
          <mxGeometry y="56" width="160" height="30" as="geometry" />
        </mxCell>
        <mxCell id="4UYKsmeuFcFhBtTtbDJH-20" value="szül.d&amp;nbsp; &amp;nbsp;D" style="text;strokeColor=none;fillColor=none;spacingLeft=4;spacingRight=4;overflow=hidden;rotatable=0;points=[[0,0.5],[1,0.5]];portConstraint=eastwest;fontSize=12;whiteSpace=wrap;html=1;" vertex="1" parent="4UYKsmeuFcFhBtTtbDJH-16">
          <mxGeometry y="86" width="160" height="30" as="geometry" />
        </mxCell>
        <mxCell id="4UYKsmeuFcFhBtTtbDJH-19" value="tankör&amp;nbsp; C(20)" style="text;strokeColor=none;fillColor=none;spacingLeft=4;spacingRight=4;overflow=hidden;rotatable=0;points=[[0,0.5],[1,0.5]];portConstraint=eastwest;fontSize=12;whiteSpace=wrap;html=1;" vertex="1" parent="4UYKsmeuFcFhBtTtbDJH-16">
          <mxGeometry y="116" width="160" height="30" as="geometry" />
        </mxCell>
        <mxCell id="4UYKsmeuFcFhBtTtbDJH-21" value="irsz&amp;nbsp; N(4)" style="text;strokeColor=none;fillColor=none;spacingLeft=4;spacingRight=4;overflow=hidden;rotatable=0;points=[[0,0.5],[1,0.5]];portConstraint=eastwest;fontSize=12;whiteSpace=wrap;html=1;" vertex="1" parent="4UYKsmeuFcFhBtTtbDJH-16">
          <mxGeometry y="146" width="160" height="30" as="geometry" />
        </mxCell>
        <mxCell id="4UYKsmeuFcFhBtTtbDJH-22" value="város&amp;nbsp; C(20)" style="text;strokeColor=none;fillColor=none;spacingLeft=4;spacingRight=4;overflow=hidden;rotatable=0;points=[[0,0.5],[1,0.5]];portConstraint=eastwest;fontSize=12;whiteSpace=wrap;html=1;" vertex="1" parent="4UYKsmeuFcFhBtTtbDJH-16">
          <mxGeometry y="176" width="160" height="30" as="geometry" />
        </mxCell>
        <mxCell id="4UYKsmeuFcFhBtTtbDJH-23" value="utca&amp;nbsp; C(20)" style="text;strokeColor=none;fillColor=none;spacingLeft=4;spacingRight=4;overflow=hidden;rotatable=0;points=[[0,0.5],[1,0.5]];portConstraint=eastwest;fontSize=12;whiteSpace=wrap;html=1;" vertex="1" parent="4UYKsmeuFcFhBtTtbDJH-16">
          <mxGeometry y="206" width="160" height="30" as="geometry" />
        </mxCell>
        <mxCell id="4UYKsmeuFcFhBtTtbDJH-24" value="hsz&amp;nbsp; N(4)" style="text;strokeColor=none;fillColor=none;spacingLeft=4;spacingRight=4;overflow=hidden;rotatable=0;points=[[0,0.5],[1,0.5]];portConstraint=eastwest;fontSize=12;whiteSpace=wrap;html=1;" vertex="1" parent="4UYKsmeuFcFhBtTtbDJH-16">
          <mxGeometry y="236" width="160" height="30" as="geometry" />
        </mxCell>
        <mxCell id="JO2VMS68JpZuam5GByf2-1" value="" style="endArrow=classic;html=1;rounded=0;exitX=0;exitY=0.5;exitDx=0;exitDy=0;entryX=1;entryY=0.5;entryDx=0;entryDy=0;" edge="1" parent="1" source="4UYKsmeuFcFhBtTtbDJH-12" target="4UYKsmeuFcFhBtTtbDJH-6">
          <mxGeometry width="50" height="50" relative="1" as="geometry">
            <mxPoint x="430" y="450" as="sourcePoint" />
            <mxPoint x="480" y="400" as="targetPoint" />
          </mxGeometry>
        </mxCell>
        <mxCell id="JO2VMS68JpZuam5GByf2-2" value="" style="endArrow=classic;html=1;rounded=0;exitX=0;exitY=0.5;exitDx=0;exitDy=0;entryX=1;entryY=0.5;entryDx=0;entryDy=0;" edge="1" parent="1" source="4UYKsmeuFcFhBtTtbDJH-9" target="4UYKsmeuFcFhBtTtbDJH-2">
          <mxGeometry width="50" height="50" relative="1" as="geometry">
            <mxPoint x="430" y="450" as="sourcePoint" />
            <mxPoint x="480" y="400" as="targetPoint" />
          </mxGeometry>
        </mxCell>
        <mxCell id="JO2VMS68JpZuam5GByf2-3" value="" style="endArrow=classic;html=1;rounded=0;exitX=1;exitY=0.5;exitDx=0;exitDy=0;entryX=0;entryY=0.5;entryDx=0;entryDy=0;" edge="1" parent="1" source="4UYKsmeuFcFhBtTtbDJH-11" target="4UYKsmeuFcFhBtTtbDJH-17">
          <mxGeometry width="50" height="50" relative="1" as="geometry">
            <mxPoint x="430" y="450" as="sourcePoint" />
            <mxPoint x="480" y="400" as="targetPoint" />
          </mxGeometry>
        </mxCell>
      </root>
    </mxGraphModel>
  </diagram>
  <diagram id="scJVkORHZr3xMGrMeh6-" name="2 oldal">
    <mxGraphModel dx="1177" dy="820" grid="1" gridSize="10" guides="1" tooltips="1" connect="1" arrows="1" fold="1" page="1" pageScale="1" pageWidth="827" pageHeight="1169" math="0" shadow="0">
      <root>
        <mxCell id="0" />
        <mxCell id="1" parent="0" />
        <mxCell id="a6KmYdMxBokdyf5ysNLW-2" value="OKTATÓ" style="rounded=0;whiteSpace=wrap;html=1;" vertex="1" parent="1">
          <mxGeometry x="140" y="150" width="120" height="60" as="geometry" />
        </mxCell>
        <mxCell id="a6KmYdMxBokdyf5ysNLW-5" value="neptunkód_PK" style="ellipse;whiteSpace=wrap;html=1;fontStyle=4" vertex="1" parent="1">
          <mxGeometry x="40" y="25" width="90" height="60" as="geometry" />
        </mxCell>
        <mxCell id="a6KmYdMxBokdyf5ysNLW-6" value="név" style="ellipse;whiteSpace=wrap;html=1;" vertex="1" parent="1">
          <mxGeometry x="170" y="30" width="80" height="50" as="geometry" />
        </mxCell>
        <mxCell id="a6KmYdMxBokdyf5ysNLW-8" value="tanszék" style="ellipse;whiteSpace=wrap;html=1;" vertex="1" parent="1">
          <mxGeometry x="294" y="30" width="86" height="50" as="geometry" />
        </mxCell>
        <mxCell id="HXnNIXOYnpMzZsfiwZ0C-1" value="" style="endArrow=none;html=1;rounded=0;entryX=0.5;entryY=1;entryDx=0;entryDy=0;" edge="1" parent="1" target="a6KmYdMxBokdyf5ysNLW-6">
          <mxGeometry width="50" height="50" relative="1" as="geometry">
            <mxPoint x="200" y="150" as="sourcePoint" />
            <mxPoint x="250" y="100" as="targetPoint" />
          </mxGeometry>
        </mxCell>
        <mxCell id="HXnNIXOYnpMzZsfiwZ0C-2" value="" style="endArrow=none;html=1;rounded=0;exitX=0.5;exitY=0;exitDx=0;exitDy=0;entryX=0.5;entryY=1;entryDx=0;entryDy=0;" edge="1" parent="1" source="a6KmYdMxBokdyf5ysNLW-2" target="a6KmYdMxBokdyf5ysNLW-5">
          <mxGeometry width="50" height="50" relative="1" as="geometry">
            <mxPoint x="390" y="450" as="sourcePoint" />
            <mxPoint x="85" y="90" as="targetPoint" />
          </mxGeometry>
        </mxCell>
        <mxCell id="HXnNIXOYnpMzZsfiwZ0C-3" value="" style="endArrow=none;html=1;rounded=0;exitX=0.5;exitY=0;exitDx=0;exitDy=0;entryX=0.5;entryY=1;entryDx=0;entryDy=0;" edge="1" parent="1" source="a6KmYdMxBokdyf5ysNLW-2" target="a6KmYdMxBokdyf5ysNLW-8">
          <mxGeometry width="50" height="50" relative="1" as="geometry">
            <mxPoint x="180" y="140" as="sourcePoint" />
            <mxPoint x="440" y="400" as="targetPoint" />
          </mxGeometry>
        </mxCell>
        <mxCell id="HXnNIXOYnpMzZsfiwZ0C-5" value="TÁRGY" style="rounded=0;whiteSpace=wrap;html=1;" vertex="1" parent="1">
          <mxGeometry x="550" y="160" width="120" height="60" as="geometry" />
        </mxCell>
        <mxCell id="HXnNIXOYnpMzZsfiwZ0C-6" value="&lt;u&gt;oktató_FK&lt;/u&gt;" style="ellipse;whiteSpace=wrap;html=1;dashed=1;dashPattern=8 8;" vertex="1" parent="1">
          <mxGeometry x="720" y="50" width="86" height="50" as="geometry" />
        </mxCell>
        <mxCell id="HXnNIXOYnpMzZsfiwZ0C-7" value="kredit" style="ellipse;whiteSpace=wrap;html=1;" vertex="1" parent="1">
          <mxGeometry x="624" y="50" width="86" height="50" as="geometry" />
        </mxCell>
        <mxCell id="HXnNIXOYnpMzZsfiwZ0C-8" value="megnevezés" style="ellipse;whiteSpace=wrap;html=1;" vertex="1" parent="1">
          <mxGeometry x="530" y="50" width="86" height="50" as="geometry" />
        </mxCell>
        <mxCell id="HXnNIXOYnpMzZsfiwZ0C-9" value="&lt;u&gt;kód_PK&lt;/u&gt;" style="ellipse;whiteSpace=wrap;html=1;" vertex="1" parent="1">
          <mxGeometry x="430" y="50" width="86" height="50" as="geometry" />
        </mxCell>
        <mxCell id="HXnNIXOYnpMzZsfiwZ0C-11" value="" style="endArrow=none;html=1;rounded=0;exitX=0.5;exitY=1;exitDx=0;exitDy=0;entryX=0.5;entryY=0;entryDx=0;entryDy=0;" edge="1" parent="1" source="HXnNIXOYnpMzZsfiwZ0C-9" target="HXnNIXOYnpMzZsfiwZ0C-5">
          <mxGeometry width="50" height="50" relative="1" as="geometry">
            <mxPoint x="472" y="125" as="sourcePoint" />
            <mxPoint x="440" y="400" as="targetPoint" />
          </mxGeometry>
        </mxCell>
        <mxCell id="HXnNIXOYnpMzZsfiwZ0C-12" value="" style="endArrow=none;html=1;rounded=0;exitX=0.5;exitY=1;exitDx=0;exitDy=0;entryX=0.5;entryY=0;entryDx=0;entryDy=0;" edge="1" parent="1" source="HXnNIXOYnpMzZsfiwZ0C-8" target="HXnNIXOYnpMzZsfiwZ0C-5">
          <mxGeometry width="50" height="50" relative="1" as="geometry">
            <mxPoint x="390" y="450" as="sourcePoint" />
            <mxPoint x="440" y="400" as="targetPoint" />
          </mxGeometry>
        </mxCell>
        <mxCell id="HXnNIXOYnpMzZsfiwZ0C-13" value="" style="endArrow=none;html=1;rounded=0;exitX=0.5;exitY=1;exitDx=0;exitDy=0;entryX=0.5;entryY=0;entryDx=0;entryDy=0;" edge="1" parent="1" source="HXnNIXOYnpMzZsfiwZ0C-7" target="HXnNIXOYnpMzZsfiwZ0C-5">
          <mxGeometry width="50" height="50" relative="1" as="geometry">
            <mxPoint x="390" y="450" as="sourcePoint" />
            <mxPoint x="440" y="400" as="targetPoint" />
          </mxGeometry>
        </mxCell>
        <mxCell id="HXnNIXOYnpMzZsfiwZ0C-14" value="" style="endArrow=none;html=1;rounded=0;exitX=0.5;exitY=1;exitDx=0;exitDy=0;entryX=0.5;entryY=0;entryDx=0;entryDy=0;" edge="1" parent="1" source="HXnNIXOYnpMzZsfiwZ0C-6" target="HXnNIXOYnpMzZsfiwZ0C-5">
          <mxGeometry width="50" height="50" relative="1" as="geometry">
            <mxPoint x="390" y="450" as="sourcePoint" />
            <mxPoint x="440" y="400" as="targetPoint" />
          </mxGeometry>
        </mxCell>
        <mxCell id="k4_8fr8UIMS-BQEBqX-K-1" value="HALLGAT" style="rounded=0;whiteSpace=wrap;html=1;" vertex="1" parent="1">
          <mxGeometry x="130" y="480" width="120" height="60" as="geometry" />
        </mxCell>
        <mxCell id="k4_8fr8UIMS-BQEBqX-K-2" value="hallgató_FK" style="ellipse;whiteSpace=wrap;html=1;fontStyle=4;dashed=1;dashPattern=8 8;" vertex="1" parent="1">
          <mxGeometry y="600" width="90" height="60" as="geometry" />
        </mxCell>
        <mxCell id="k4_8fr8UIMS-BQEBqX-K-3" value="tárgy_FK" style="ellipse;whiteSpace=wrap;html=1;fontStyle=4;dashed=1;dashPattern=8 8;" vertex="1" parent="1">
          <mxGeometry x="100" y="600" width="90" height="60" as="geometry" />
        </mxCell>
        <mxCell id="k4_8fr8UIMS-BQEBqX-K-4" value="félév" style="ellipse;whiteSpace=wrap;html=1;" vertex="1" parent="1">
          <mxGeometry x="200" y="605" width="80" height="50" as="geometry" />
        </mxCell>
        <mxCell id="k4_8fr8UIMS-BQEBqX-K-5" value="vizsgajegy" style="ellipse;whiteSpace=wrap;html=1;" vertex="1" parent="1">
          <mxGeometry x="294" y="605" width="80" height="50" as="geometry" />
        </mxCell>
        <mxCell id="k4_8fr8UIMS-BQEBqX-K-6" value="" style="endArrow=none;html=1;rounded=0;exitX=0.5;exitY=0;exitDx=0;exitDy=0;entryX=0.5;entryY=1;entryDx=0;entryDy=0;" edge="1" parent="1" source="k4_8fr8UIMS-BQEBqX-K-2" target="k4_8fr8UIMS-BQEBqX-K-1">
          <mxGeometry width="50" height="50" relative="1" as="geometry">
            <mxPoint x="390" y="450" as="sourcePoint" />
            <mxPoint x="440" y="400" as="targetPoint" />
          </mxGeometry>
        </mxCell>
        <mxCell id="k4_8fr8UIMS-BQEBqX-K-7" value="" style="endArrow=none;html=1;rounded=0;exitX=0.5;exitY=0;exitDx=0;exitDy=0;" edge="1" parent="1" source="k4_8fr8UIMS-BQEBqX-K-3">
          <mxGeometry width="50" height="50" relative="1" as="geometry">
            <mxPoint x="390" y="450" as="sourcePoint" />
            <mxPoint x="190" y="540" as="targetPoint" />
          </mxGeometry>
        </mxCell>
        <mxCell id="k4_8fr8UIMS-BQEBqX-K-8" value="" style="endArrow=none;html=1;rounded=0;exitX=0.5;exitY=0;exitDx=0;exitDy=0;entryX=0.5;entryY=1;entryDx=0;entryDy=0;" edge="1" parent="1" source="k4_8fr8UIMS-BQEBqX-K-4" target="k4_8fr8UIMS-BQEBqX-K-1">
          <mxGeometry width="50" height="50" relative="1" as="geometry">
            <mxPoint x="390" y="450" as="sourcePoint" />
            <mxPoint x="440" y="400" as="targetPoint" />
          </mxGeometry>
        </mxCell>
        <mxCell id="k4_8fr8UIMS-BQEBqX-K-9" value="" style="endArrow=none;html=1;rounded=0;exitX=0.5;exitY=0;exitDx=0;exitDy=0;entryX=0.5;entryY=1;entryDx=0;entryDy=0;" edge="1" parent="1" source="k4_8fr8UIMS-BQEBqX-K-5" target="k4_8fr8UIMS-BQEBqX-K-1">
          <mxGeometry width="50" height="50" relative="1" as="geometry">
            <mxPoint x="390" y="450" as="sourcePoint" />
            <mxPoint x="440" y="400" as="targetPoint" />
          </mxGeometry>
        </mxCell>
      </root>
    </mxGraphModel>
  </diagram>
</mxfile>
